<svg width="75" height="72" viewBox="0 0 75 72" fill="none" xmlns="http://www.w3.org/2000/svg">
<path d="M54.4814 0.451523C58.5231 3.02416 62.2781 6.70038 64.9798 10.7134C66.3126 12.7056 67.7172 15.357 68.5485 17.4496C72.3322 27.0522 71.9237 37.5864 67.4091 46.759C65.6175 50.4065 63.2957 53.617 60.3648 56.5264L60.0582 56.8303C59.7375 57.1482 59.2842 57.2936 58.8384 57.2215C58.0286 57.0854 56.6742 56.6554 56.0078 56.3258C54.7035 55.6736 53.1557 54.5987 51.2925 53.0437C48.383 50.6215 46.4338 49.4606 44.3915 48.9447C43.4527 48.7082 43.4814 48.7655 43.9257 47.9127C44.4703 46.8593 45.8104 45.6626 47.0215 45.1538C47.7882 44.8313 47.7667 44.817 46.6202 44.9388C44.155 45.1824 42.1843 46.0352 40.3713 47.6189C38.7088 49.0736 37.254 51.3668 36.4514 53.8033C36.257 54.3773 36.0761 54.3723 36.115 53.7675C36.1283 53.5598 36.1475 53.335 36.1719 53.1153C36.6162 49.0593 38.8234 45.4333 42.1342 43.3264C45.1869 41.3844 49.8377 40.5245 52.998 41.3199C53.8006 41.5206 54.854 42.0222 55.2482 42.3876C55.3987 42.5238 55.5563 42.6385 55.5993 42.6385C55.757 42.6385 56.6456 41.9362 57.1973 41.3772C58.6521 39.901 59.7485 37.8085 60.2214 35.6157C60.4006 34.7701 60.4006 32.9785 60.2214 32.3193C59.9205 31.1942 59.1752 30.1193 58.5876 29.9401C58.2723 29.8469 58.0573 29.8899 57.1615 30.2124C56.7172 30.3701 56.5022 30.4059 55.9074 30.4059C53.8938 30.4131 51.3211 29.4528 45.6599 26.5935C43.9472 25.7336 40.5934 24.2359 38.8807 23.5766C35.871 22.4085 32.2019 22.0359 29.0058 22.5805C28.3752 22.688 28.1029 22.7095 28.0814 22.6522C28.0097 22.4443 27.6013 22.344 26.5048 22.2795C23.0006 22.0645 21.1733 21.5486 19.4749 20.2802C17.7479 18.9903 16.8736 17.4209 16.8736 15.615C16.8736 13.1356 18.7153 10.9356 21.3166 10.3121C21.5029 10.2619 21.9902 10.2046 22.4058 10.1831L22.8391 10.1542C22.9005 10.1501 22.9094 10.0635 22.8501 10.047C22.2338 9.86064 21.3524 9.74598 20.5928 9.74598C16.8951 9.74598 13.7707 12.3974 13.054 16.1453C12.9107 16.8763 12.9107 18.4528 13.054 19.1838C13.1902 19.886 13.4625 20.7245 13.8065 21.4626C14.4156 22.7812 15.7915 24.4724 17.1316 25.5544C18.8729 26.9662 21.4026 28.2991 24.054 29.2092C24.1185 29.2307 23.9035 29.3811 23.5166 29.589C22.0905 30.3414 21.1231 31.0079 19.4964 32.3622C17.8553 33.7238 16.9667 34.2971 15.9707 34.6482C15.4905 34.8131 14.3368 34.9994 14.2221 34.9277C14.1863 34.9062 14.1648 34.9134 14.1648 34.9492C14.172 35.0997 15.3114 35.9023 16.0638 36.275C17.7264 37.1062 19.654 37.3212 22.0117 36.9271C22.1049 36.9131 22.1629 37.0252 22.0976 37.0932L21.6104 37.6007C20.2632 39.0052 18.4645 41.4489 17.4469 43.2476C15.4977 46.6945 14.3081 50.3277 13.9498 53.9609C13.7922 55.559 13.8638 58.2463 14.0931 59.7225C14.129 59.959 14.1433 60.1668 14.129 60.1811C14.0573 60.2528 12.3518 58.9127 11.0834 57.7876C6.14591 53.4306 2.30487 47.4039 0.491837 41.1694C-0.0384561 39.3564 -0.0241238 39.4065 0.0188729 39.7362C0.119199 40.46 0.642325 42.9179 0.900306 43.8567C3.26513 52.4131 8.44623 59.7297 15.7987 64.9036C17.3465 65.9928 19.8117 67.4046 21.5459 68.1857C25.2078 69.8554 28.9198 70.8873 32.9759 71.3818C34.5524 71.5681 38.2788 71.6469 39.9772 71.5251C47.2436 70.9948 54.0514 68.458 59.8846 64.0938C68.097 57.9668 73.4716 48.701 74.7185 38.5251C75.8078 29.632 73.7152 20.6528 68.7993 13.1785C65.8039 8.6209 61.6475 4.59354 56.9967 1.74859C56.0078 1.14664 53.9368 6.10352e-05 53.8221 6.10352e-05C53.7934 6.10352e-05 54.0872 0.200706 54.4814 0.451523ZM38.8664 26.6222C39.2534 26.7153 39.8123 26.8802 40.1061 26.9877C40.7798 27.2313 42.1485 27.8619 42.0983 27.9121C42.0768 27.9336 41.8117 27.9121 41.4964 27.8691C40.8873 27.7831 40.357 27.8261 40.0058 27.9838C39.884 28.0339 39.6117 28.2417 39.4039 28.4424C39.0384 28.7864 38.9954 28.8079 38.6443 28.8079C38.2071 28.8079 37.899 28.6645 37.0892 28.0912C36.4371 27.6183 35.9283 27.3818 35.4553 27.3245C35.2547 27.303 35.0899 27.26 35.0899 27.2241C35.0899 27.1955 35.1974 27.0808 35.3263 26.9733C36.043 26.3642 37.297 26.2424 38.8664 26.6222ZM58.5374 31.9036C58.953 32.1903 59.2254 32.9212 59.1322 33.516C59.1203 33.5976 59.0058 33.606 58.9821 33.527L58.9745 33.5017C58.7596 32.7636 58.3296 32.4267 57.6846 32.4769C57.2762 32.5127 57.2547 32.4841 57.4052 32.1903C57.6631 31.6886 58.0788 31.5811 58.5374 31.9036Z" fill="#191F28"/>
<path d="M45.1807 13.6444C48.1475 14.9415 49.6165 18.1662 48.4771 20.8822C47.9611 22.1147 47.1514 22.946 45.7683 23.6626C45.1663 23.9779 45.1377 23.9994 45.3025 24.0639C45.7898 24.2574 47.2732 24.9525 48.6276 25.6333L49.8592 26.2491C50.019 26.329 50.2128 26.2875 50.326 26.1493C50.6126 25.7981 51.1357 24.9024 51.3507 24.3864C52.5689 21.4698 52.096 18.3167 50.0751 15.9519C49.0289 14.7336 47.3377 13.8164 45.5605 13.5082C44.6289 13.3506 44.5572 13.3721 45.1807 13.6444Z" fill="#191F28"/>
</svg>
