<svg width="1000" height="600" viewBox="0 0 1000 600" fill="none" xmlns="http://www.w3.org/2000/svg">
<rect width="1000" height="600" fill="white"/>
<g clip-path="url(#clip0_512_26)">
<mask id="mask0_512_26" style="mask-type:luminance" maskUnits="userSpaceOnUse" x="124" y="168" width="752" height="185">
<path d="M875.684 168H124V353H875.684V168Z" fill="white"/>
</mask>
<g mask="url(#mask0_512_26)">
<path d="M136.32 262.389C136.32 254.755 137.82 247.985 140.819 242.078C143.909 236.171 148.089 231.627 153.36 228.446C158.631 225.266 164.492 223.675 170.945 223.675C175.852 223.675 180.532 224.766 184.985 226.947C189.438 229.037 192.982 231.854 195.617 235.399V199.547H214.974V300.421H195.617V289.243C193.255 292.969 189.938 295.968 185.666 298.24C181.395 300.512 176.443 301.648 170.808 301.648C164.447 301.648 158.631 300.012 153.36 296.741C148.089 293.469 143.909 288.88 140.819 282.973C137.82 276.975 136.32 270.114 136.32 262.389ZM195.754 262.662C195.754 258.027 194.845 254.074 193.027 250.802C191.21 247.44 188.756 244.895 185.666 243.169C182.577 241.351 179.26 240.442 175.715 240.442C172.171 240.442 168.9 241.305 165.901 243.032C162.902 244.759 160.448 247.303 158.54 250.666C156.722 253.937 155.813 257.845 155.813 262.389C155.813 266.933 156.722 270.932 158.54 274.385C160.448 277.747 162.902 280.337 165.901 282.155C168.991 283.972 172.262 284.881 175.715 284.881C179.26 284.881 182.577 284.018 185.666 282.291C188.756 280.474 191.21 277.929 193.027 274.657C194.845 271.295 195.754 267.296 195.754 262.662ZM221.89 262.389C221.89 254.755 223.39 247.985 226.389 242.078C229.479 236.171 233.659 231.627 238.93 228.446C244.201 225.266 250.062 223.675 256.515 223.675C261.422 223.675 266.102 224.766 270.555 226.947C275.008 229.037 278.552 231.854 281.188 235.399V199.547H300.545V300.421H281.188V289.243C278.825 292.969 275.508 295.968 271.237 298.24C266.966 300.512 262.013 301.648 256.378 301.648C250.017 301.648 244.201 300.012 238.93 296.741C233.659 293.469 229.479 288.88 226.389 282.973C223.39 276.975 221.89 270.114 221.89 262.389ZM281.324 262.662C281.324 258.027 280.415 254.074 278.598 250.802C276.78 247.44 274.327 244.895 271.237 243.169C268.147 241.351 264.83 240.442 261.286 240.442C257.741 240.442 254.47 241.305 251.471 243.032C248.472 244.759 246.018 247.303 244.11 250.666C242.292 253.937 241.384 257.845 241.384 262.389C241.384 266.933 242.292 270.932 244.11 274.385C246.018 277.747 248.472 280.337 251.471 282.155C254.561 283.972 257.832 284.881 261.286 284.881C264.83 284.881 268.147 284.018 271.237 282.291C274.327 280.474 276.78 277.929 278.598 274.657C280.415 271.295 281.324 267.296 281.324 262.662ZM322.046 215.905C318.684 215.905 315.866 214.86 313.595 212.77C311.414 210.589 310.323 207.908 310.323 204.727C310.323 201.547 311.414 198.911 313.595 196.821C315.866 194.64 318.684 193.55 322.046 193.55C325.409 193.55 328.181 194.64 330.362 196.821C332.633 198.911 333.77 201.547 333.77 204.727C333.77 207.908 332.633 210.589 330.362 212.77C328.181 214.86 325.409 215.905 322.046 215.905ZM331.452 224.902V300.421H312.368V224.902H331.452ZM385.34 223.812C394.337 223.812 401.608 226.674 407.151 232.4C412.695 238.034 415.466 245.94 415.466 256.119V300.421H396.382V258.709C396.382 252.711 394.882 248.121 391.883 244.941C388.885 241.669 384.795 240.033 379.615 240.033C374.345 240.033 370.164 241.669 367.074 244.941C364.075 248.121 362.576 252.711 362.576 258.709V300.421H343.491V224.902H362.576V234.308C365.12 231.036 368.347 228.492 372.254 226.674C376.253 224.766 380.615 223.812 385.34 223.812ZM456.379 223.675C462.014 223.675 466.966 224.811 471.238 227.083C475.509 229.264 478.871 232.127 481.325 235.671V224.902H500.546V300.966C500.546 307.964 499.137 314.189 496.32 319.642C493.503 325.185 489.277 329.547 483.642 332.728C478.008 336 471.192 337.635 463.195 337.635C452.471 337.635 443.656 335.136 436.75 330.138C429.934 325.14 426.071 318.324 425.163 309.691H444.111C445.11 313.144 447.246 315.87 450.518 317.87C453.88 319.96 457.924 321.005 462.65 321.005C468.193 321.005 472.691 319.324 476.145 315.961C479.598 312.69 481.325 307.691 481.325 300.966V289.243C478.871 292.787 475.464 295.741 471.101 298.104C466.83 300.466 461.923 301.648 456.379 301.648C450.018 301.648 444.201 300.012 438.931 296.741C433.66 293.469 429.479 288.88 426.39 282.973C423.391 276.975 421.891 270.114 421.891 262.389C421.891 254.755 423.391 247.985 426.39 242.078C429.479 236.171 433.615 231.627 438.795 228.446C444.065 225.266 449.927 223.675 456.379 223.675ZM481.325 262.662C481.325 258.027 480.416 254.074 478.599 250.802C476.781 247.44 474.327 244.895 471.238 243.169C468.148 241.351 464.831 240.442 461.287 240.442C457.742 240.442 454.471 241.305 451.472 243.032C448.473 244.759 446.019 247.303 444.111 250.666C442.293 253.937 441.385 257.845 441.385 262.389C441.385 266.933 442.293 270.932 444.111 274.385C446.019 277.747 448.473 280.337 451.472 282.155C454.561 283.972 457.833 284.881 461.287 284.881C464.831 284.881 468.148 284.018 471.238 282.291C474.327 280.474 476.781 277.929 478.599 274.657C480.416 271.295 481.325 267.296 481.325 262.662ZM507.461 262.389C507.461 254.755 508.961 247.985 511.96 242.078C515.05 236.171 519.23 231.627 524.501 228.446C529.772 225.266 535.633 223.675 542.085 223.675C546.993 223.675 551.673 224.766 556.126 226.947C560.579 229.037 564.123 231.854 566.759 235.399V199.547H586.115V300.421H566.759V289.243C564.396 292.969 561.079 295.968 556.808 298.24C552.536 300.512 547.583 301.648 541.949 301.648C535.588 301.648 529.772 300.012 524.501 296.741C519.23 293.469 515.05 288.88 511.96 282.973C508.961 276.975 507.461 270.114 507.461 262.389ZM566.895 262.662C566.895 258.027 565.986 254.074 564.169 250.802C562.351 247.44 559.898 244.895 556.808 243.169C553.718 241.351 550.401 240.442 546.857 240.442C543.312 240.442 540.041 241.305 537.042 243.032C534.043 244.759 531.589 247.303 529.681 250.666C527.863 253.937 526.954 257.845 526.954 262.389C526.954 266.933 527.863 270.932 529.681 274.385C531.589 277.747 534.043 280.337 537.042 282.155C540.132 283.972 543.403 284.881 546.857 284.881C550.401 284.881 553.718 284.018 556.808 282.291C559.898 280.474 562.351 277.929 564.169 274.657C565.986 271.295 566.895 267.296 566.895 262.662ZM631.475 301.648C624.201 301.648 617.658 300.057 611.845 296.877C606.027 293.605 601.437 289.016 598.075 283.109C594.804 277.202 593.168 270.386 593.168 262.662C593.168 254.937 594.849 248.121 598.212 242.214C601.665 236.307 606.345 231.763 612.254 228.583C618.159 225.311 624.746 223.675 632.02 223.675C639.288 223.675 645.875 225.311 651.786 228.583C657.691 231.763 662.326 236.307 665.69 242.214C669.142 248.121 670.87 254.937 670.87 262.662C670.87 270.386 669.098 277.202 665.553 283.109C662.097 289.016 657.375 293.605 651.377 296.877C645.466 300.057 638.836 301.648 631.475 301.648ZM631.475 285.017C634.926 285.017 638.154 284.2 641.153 282.564C644.24 280.837 646.693 278.293 648.514 274.93C650.33 271.567 651.24 267.478 651.24 262.662C651.24 255.482 649.332 249.984 645.515 246.167C641.786 242.26 637.2 240.306 631.747 240.306C626.294 240.306 621.704 242.26 617.979 246.167C614.343 249.984 612.527 255.482 612.527 262.662C612.527 269.841 614.299 275.384 617.843 279.292C621.475 283.109 626.022 285.017 631.475 285.017ZM719.9 223.812C728.896 223.812 736.165 226.674 741.71 232.4C747.255 238.034 750.025 245.94 750.025 256.119V300.421H730.941V258.709C730.941 252.711 729.442 248.121 726.443 244.941C723.444 241.669 719.354 240.033 714.174 240.033C708.902 240.033 704.725 241.669 701.633 244.941C698.634 248.121 697.135 252.711 697.135 258.709V300.421H678.051V224.902H697.135V234.308C699.681 231.036 702.904 228.492 706.813 226.674C710.81 224.766 715.172 223.812 719.9 223.812ZM790.94 223.675C796.572 223.675 801.524 224.811 805.798 227.083C810.068 229.264 813.432 232.127 815.885 235.671V224.902H835.106V300.966C835.106 307.964 833.694 314.189 830.88 319.642C828.061 325.185 823.836 329.547 818.203 332.728C812.565 336 805.749 337.635 797.755 337.635C787.03 337.635 778.214 335.136 771.31 330.138C764.494 325.14 760.629 318.324 759.723 309.691H778.671C779.669 313.144 781.806 315.87 785.078 317.87C788.437 319.96 792.483 321.005 797.21 321.005C802.75 321.005 807.249 319.324 810.705 315.961C814.157 312.69 815.885 307.691 815.885 300.966V289.243C813.432 292.787 810.024 295.741 805.662 298.104C801.387 300.466 796.48 301.648 790.94 301.648C784.577 301.648 778.759 300.012 773.491 296.741C768.219 293.469 764.037 288.88 760.95 282.973C757.951 276.975 756.452 270.114 756.452 262.389C756.452 254.755 757.951 247.985 760.95 242.078C764.037 236.171 768.175 231.627 773.355 228.446C778.623 225.266 784.484 223.675 790.94 223.675ZM815.885 262.662C815.885 258.027 814.975 254.074 813.159 250.802C811.338 247.44 808.885 244.895 805.798 243.169C802.707 241.351 799.391 240.442 795.847 240.442C792.303 240.442 789.031 241.305 786.032 243.032C783.033 244.759 780.58 247.303 778.671 250.666C776.85 253.937 775.945 257.845 775.945 262.389C775.945 266.933 776.85 270.932 778.671 274.385C780.58 277.747 783.033 280.337 786.032 282.155C789.119 283.972 792.39 284.881 795.847 284.881C799.391 284.881 802.707 284.018 805.798 282.291C808.885 280.474 811.338 277.929 813.159 274.657C814.975 271.295 815.885 267.296 815.885 262.662Z" fill="#282828"/>
<path d="M859.205 301.58C855.013 301.58 851.537 300.311 848.777 297.773C846.128 295.124 844.804 291.869 844.804 288.007C844.804 284.145 846.128 280.944 848.777 278.406C851.537 275.758 855.013 274.434 859.205 274.434C863.289 274.434 866.653 275.758 869.302 278.406C871.95 280.944 873.275 284.145 873.275 288.007C873.275 291.869 871.95 295.124 869.302 297.773C866.653 300.311 863.289 301.58 859.205 301.58Z" fill="#2563EB"/>
</g>
</g>
<path d="M315.742 388.164V408.945H311.406V404.062H304.297V406.797H287.695V390.82H304.297V393.555H311.406V388.164H315.742ZM292.031 394.258V403.32H300V394.258H292.031ZM303.789 409.883C311.289 409.883 315.859 412.383 315.859 416.68C315.859 420.977 311.289 423.438 303.789 423.438C296.328 423.438 291.758 420.977 291.797 416.68C291.758 412.383 296.328 409.883 303.789 409.883ZM303.789 413.203C298.867 413.203 296.094 414.414 296.094 416.68C296.094 418.867 298.867 420.078 303.789 420.078C308.711 420.078 311.523 418.867 311.523 416.68C311.523 414.414 308.711 413.203 303.789 413.203ZM304.297 400.547H311.406V396.992H304.297V400.547ZM330.862 398.203C330.862 403.984 334.261 410.078 339.964 412.461L337.581 415.898C333.402 414.102 330.355 410.391 328.753 405.898C327.112 410.742 324.027 414.805 319.886 416.758L317.386 413.359C322.972 410.781 326.448 404.219 326.448 398.203V395.234H318.675V391.641H338.597V395.234H330.862V398.203ZM346.917 388.164V423.477H342.542V388.164H346.917ZM379.303 388.164V423.477H375.162V405.469H371.178V421.68H367.194V388.828H371.178V401.992H375.162V388.164H379.303ZM363.209 392.344V395.859H354.381V411.562C358.229 411.523 361.393 411.328 364.967 410.664L365.28 414.219C361.022 415.078 357.311 415.195 352.389 415.234H350.006V392.344H363.209ZM401.259 391.562V395H380.322V391.562H388.642V388.008H392.978V391.562H401.259ZM390.791 396.367C395.908 396.367 399.384 398.945 399.423 402.812C399.384 406.68 395.908 409.258 390.791 409.258C385.673 409.258 382.119 406.68 382.119 402.812C382.119 398.945 385.673 396.367 390.791 396.367ZM390.791 399.648C388.095 399.648 386.338 400.82 386.338 402.812C386.338 404.805 388.095 405.938 390.791 405.898C393.486 405.938 395.283 404.805 395.283 402.812C395.283 400.82 393.486 399.648 390.791 399.648ZM408.134 388.164V397.539H413.056V401.094H408.134V410.273H403.798V388.164H408.134ZM408.134 411.914V423.477H403.798V415.391H384.619V411.914H408.134ZM440.598 391.406V395C440.598 399.375 440.598 404.141 439.309 411.055L435.052 410.625C436.262 404.102 436.262 399.258 436.262 395V394.883H414.895V391.406H440.598ZM443.841 415.352V418.906H411.653V415.352H418.88V404.102H423.216V415.352H427.708V404.102H431.966V415.352H443.841ZM481.542 405.078V408.555H449.316V405.078H463.3V401.719H453.261V389.766H477.636V393.164H457.597V398.281H477.831V401.719H467.558V405.078H481.542ZM465.37 410.586C472.988 410.586 477.558 412.891 477.597 417.031C477.558 421.133 472.988 423.477 465.37 423.477C457.675 423.477 453.066 421.133 453.066 417.031C453.066 412.891 457.675 410.586 465.37 410.586ZM465.37 413.906C460.214 413.906 457.441 415 457.48 417.031C457.441 419.062 460.214 420.117 465.37 420.117C470.409 420.117 473.222 419.062 473.261 417.031C473.222 415 470.409 413.906 465.37 413.906ZM490.178 390.742C495.491 390.742 499.319 395.586 499.358 403.203C499.319 410.898 495.491 415.703 490.178 415.703C484.827 415.703 480.959 410.898 480.998 403.203C480.959 395.586 484.827 390.742 490.178 390.742ZM490.178 394.648C487.209 394.648 485.178 397.812 485.178 403.203C485.178 408.633 487.209 411.797 490.178 411.797C493.186 411.797 495.178 408.633 495.178 403.203C495.178 397.812 493.186 394.648 490.178 394.648ZM508.342 388.164V401.719H513.772V405.391H508.342V423.477H504.006V388.164H508.342ZM541.47 388.164V423.516H537.173V388.164H541.47ZM530.611 391.25V404.492H518.462V411.602C524.029 411.562 528.834 411.289 534.322 410.352L534.712 413.906C528.697 414.961 523.423 415.156 517.095 415.156H514.009V401.055H526.197V394.766H513.97V391.25H530.611ZM581.906 406.523V409.961H549.641V406.523H563.586V403.906H553.781V389.102H578.039V392.461H558.117V394.883H577.18V398.086H558.117V400.586H578.312V403.906H567.922V406.523H581.906ZM565.773 411.914C573.547 411.914 577.961 413.984 578 417.656C577.961 421.445 573.547 423.438 565.773 423.438C557.883 423.438 553.469 421.445 553.469 417.656C553.469 413.984 557.883 411.914 565.773 411.914ZM565.773 415.156C560.461 415.156 557.805 415.977 557.805 417.656C557.805 419.375 560.461 420.195 565.773 420.195C571.008 420.195 573.625 419.375 573.664 417.656C573.625 415.977 571.008 415.156 565.773 415.156ZM608.941 388.164V396.875H613.862V400.469H608.941V408.789H604.605V388.164H608.941ZM590.425 410.195V413.242H604.605V410.195H608.941V423.047H586.128V410.195H590.425ZM590.425 419.609H604.605V416.602H590.425V419.609ZM602.066 391.445V394.922H581.128V391.445H589.448V387.891H593.784V391.445H602.066ZM591.597 396.133C596.714 396.133 600.191 398.594 600.23 402.344C600.191 406.094 596.714 408.555 591.597 408.555C586.441 408.555 582.925 406.094 582.925 402.344C582.925 398.594 586.441 396.133 591.597 396.133ZM591.597 399.336C588.902 399.336 587.144 400.469 587.144 402.344C587.144 404.258 588.902 405.352 591.597 405.352C594.292 405.352 596.089 404.258 596.089 402.344C596.089 400.469 594.292 399.336 591.597 399.336ZM647.97 389.18V392.461H643.127V397.812H647.775V401.094H621.837V397.812H626.486V392.461H621.642V389.18H647.97ZM650.939 403.32V406.758H618.752V403.32H650.939ZM646.916 409.141V417.539H626.837V419.922H647.892V423.164H622.58V414.531H642.658V412.305H622.541V409.141H646.916ZM630.822 397.812H638.752V392.461H630.822V397.812ZM680.317 388.203V412.031H676.177V400.508H672.505V409.062H668.442V388.867H672.505V396.992H676.177V388.203H680.317ZM665.005 390.742V401.172H655.825V405.273C659.927 405.215 663.052 404.98 666.645 404.297L667.036 407.695C662.817 408.555 659.263 408.672 654.028 408.672H651.606V398.008H660.825V394.258H651.567V390.742H665.005ZM670.395 411.172C670.395 415.195 674.888 418.984 682.036 419.922L680.278 423.281C674.751 422.48 670.395 419.98 668.247 416.484C666.04 419.98 661.684 422.48 656.177 423.281L654.419 419.922C661.528 418.984 666.02 415.195 666.059 411.172V410.43H670.395V411.172ZM713.68 405.508V408.945H681.492V405.508H695.359V402.266H684.578V398.75H689.227V392.695H684.383V389.219H710.711V392.695H705.867V398.75H710.516V402.266H699.695V405.508H713.68ZM709.773 411.719V423.047H685.281V411.719H709.773ZM689.578 415.117V419.531H705.555V415.117H689.578ZM693.562 398.75H701.492V392.695H693.562V398.75Z" fill="#282828"/>
<defs>
<clipPath id="clip0_512_26">
<rect width="751.684" height="185" fill="white" transform="translate(124 168)"/>
</clipPath>
</defs>
</svg>
