<svg width="20" height="800" viewBox="0 0 20 800" fill="none" xmlns="http://www.w3.org/2000/svg">
<rect x="7" y="0.998749" width="6" height="799.001" fill="url(#paint0_linear_192_190)"/>
<path d="M17 9.98752C17 13.8431 13.8695 16.975 10 16.975C6.13047 16.975 3 13.8431 3 9.98752C3 6.13195 6.13047 3 10 3C13.8695 3 17 6.13195 17 9.98752Z" fill="white" stroke="#43DDFF" stroke-width="6"/>
<path d="M17 209.738C17 213.593 13.8695 216.725 10 216.725C6.13047 216.725 3 213.593 3 209.738C3 205.882 6.13047 202.75 10 202.75C13.8695 202.75 17 205.882 17 209.738Z" fill="white" stroke="#43DDFF" stroke-width="6"/>
<path d="M17 409.488C17 413.344 13.8695 416.476 10 416.476C6.13047 416.476 3 413.344 3 409.488C3 405.633 6.13047 402.501 10 402.501C13.8695 402.501 17 405.633 17 409.488Z" fill="white" stroke="#43DDFF" stroke-width="6"/>
<path d="M17 609.238C17 613.094 13.8695 616.226 10 616.226C6.13047 616.226 3 613.094 3 609.238C3 605.383 6.13047 602.251 10 602.251C13.8695 602.251 17 605.383 17 609.238Z" fill="white" stroke="#43DDFF" stroke-width="6"/>
<defs>
<linearGradient id="paint0_linear_192_190" x1="10" y1="0.998749" x2="10" y2="800" gradientUnits="userSpaceOnUse">
<stop stop-color="#43DDFF"/>
<stop offset="0.863044" stop-color="#43DDFF"/>
<stop offset="1" stop-color="#43DDFF" stop-opacity="0"/>
</linearGradient>
</defs>
</svg>
