<svg width="1000" height="600" viewBox="0 0 1000 600" fill="none" xmlns="http://www.w3.org/2000/svg">
<rect width="1000" height="600" fill="#0C387D"/>
<path d="M246.742 388.164V408.945H242.406V404.062H235.297V406.797H218.695V390.82H235.297V393.555H242.406V388.164H246.742ZM223.031 394.258V403.32H231V394.258H223.031ZM234.789 409.883C242.289 409.883 246.859 412.383 246.859 416.68C246.859 420.977 242.289 423.438 234.789 423.438C227.328 423.438 222.758 420.977 222.797 416.68C222.758 412.383 227.328 409.883 234.789 409.883ZM234.789 413.203C229.867 413.203 227.094 414.414 227.094 416.68C227.094 418.867 229.867 420.078 234.789 420.078C239.711 420.078 242.523 418.867 242.523 416.68C242.523 414.414 239.711 413.203 234.789 413.203ZM235.297 400.547H242.406V396.992H235.297V400.547ZM261.862 398.203C261.862 403.984 265.261 410.078 270.964 412.461L268.581 415.898C264.402 414.102 261.355 410.391 259.753 405.898C258.112 410.742 255.027 414.805 250.886 416.758L248.386 413.359C253.972 410.781 257.448 404.219 257.448 398.203V395.234H249.675V391.641H269.597V395.234H261.862V398.203ZM277.917 388.164V423.477H273.542V388.164H277.917ZM309.327 388.203V413.711H304.952V388.203H309.327ZM310.303 419.258V422.773H285.967V411.133H290.342V419.258H310.303ZM290.069 390.508C295.42 390.508 299.561 394.219 299.561 399.336C299.561 404.57 295.42 408.203 290.069 408.203C284.678 408.203 280.537 404.57 280.537 399.336C280.537 394.219 284.678 390.508 290.069 390.508ZM290.069 394.297C287.061 394.297 284.756 396.289 284.795 399.336C284.756 402.461 287.061 404.414 290.069 404.414C292.998 404.414 295.303 402.461 295.303 399.336C295.303 396.289 292.998 394.297 290.069 394.297ZM327.338 388.711C335.384 388.711 340.033 390.859 340.072 394.766C340.033 398.711 335.384 400.82 327.338 400.859C319.291 400.82 314.603 398.711 314.603 394.766C314.603 390.859 319.291 388.711 327.338 388.711ZM327.338 391.914C321.947 391.914 319.134 392.93 319.173 394.766C319.134 396.719 321.947 397.617 327.338 397.617C332.806 397.617 335.58 396.719 335.58 394.766C335.58 392.93 332.806 391.914 327.338 391.914ZM343.47 402.734V406.211H311.283V402.734H343.47ZM339.447 408.594V417.227H319.369V419.844H340.423V423.164H315.111V414.141H335.189V411.797H315.072V408.594H339.447ZM360.469 389.727C365.82 389.688 369.727 392.734 369.727 397.148C369.727 401.484 365.82 404.57 360.469 404.531C355.156 404.57 351.289 401.484 351.289 397.148C351.289 392.734 355.156 389.688 360.469 389.727ZM360.469 393.242C357.578 393.203 355.469 394.727 355.508 397.148C355.469 399.531 357.578 400.977 360.469 400.977C363.477 400.977 365.586 399.531 365.586 397.148C365.586 394.727 363.477 393.203 360.469 393.242ZM378.477 388.203V423.438H374.18V388.203H378.477ZM348.984 406.953C355.352 406.953 364.258 406.836 371.875 405.703L372.188 408.906C369.141 409.492 365.977 409.863 362.891 410.078V422.383H358.516V410.352C355.254 410.488 352.188 410.508 349.531 410.547L348.984 406.953ZM408.167 388.203V399.297H413.089V402.891H408.167V414.57H403.831V388.203H408.167ZM401.292 392.109V395.586H380.355V392.109H388.675V388.164H393.011V392.109H401.292ZM390.823 397.031C395.902 397.031 399.417 399.727 399.456 403.789C399.417 407.812 395.902 410.469 390.823 410.469C385.706 410.469 382.152 407.812 382.152 403.789C382.152 399.727 385.706 397.031 390.823 397.031ZM390.823 400.391C388.128 400.391 386.37 401.641 386.37 403.789C386.37 405.898 388.128 407.148 390.823 407.109C393.519 407.148 395.316 405.898 395.316 403.789C395.316 401.641 393.519 400.391 390.823 400.391ZM409.573 419.258V422.773H385.55V412.5H389.886V419.258H409.573ZM445.83 388.164V398.32H450.752V401.953H445.83V413.633H441.416V388.164H445.83ZM436.22 390.859C436.22 400.234 430.127 406.914 419.658 409.961L417.861 406.523C425.927 404.199 430.732 399.805 431.494 394.414H419.345V390.859H436.22ZM447.158 419.258V422.773H423.134V411.016H427.548V419.258H447.158ZM478.919 388.164V414.258H474.583V405.039H469.583V401.445H474.583V398.086H469.583V394.57H474.583V388.164H478.919ZM469.075 390.82V394.297H465.95V405.547C467.278 405.469 468.567 405.371 469.817 405.234L470.012 408.398C463.333 409.492 455.481 409.609 449.856 409.609L449.387 406.016C450.618 406.016 451.966 406.016 453.372 405.977V394.297H450.286V390.82H469.075ZM479.817 419.258V422.773H455.716V412.227H460.091V419.258H479.817ZM457.591 405.938C458.958 405.898 460.364 405.859 461.77 405.781V394.297H457.591V405.938ZM505.214 399.414V403.047H519.198V406.484H487.011V403.047H500.917V399.414H505.214ZM515.175 408.633V417.383H495.097V419.844H516.152V423.164H490.839V414.258H510.917V411.875H490.8V408.633H515.175ZM516.308 389.18V392.617H506.191C507.011 395.293 511.249 397.52 517.675 398.047L516.308 401.328C509.784 400.781 504.96 398.398 503.105 394.883C501.269 398.398 496.425 400.781 489.941 401.328L488.495 398.047C494.882 397.52 499.12 395.273 499.98 392.617H489.941V389.18H516.308ZM528.186 389.727C532.756 389.688 536.35 392.324 537.248 396.211H543.616V388.164H547.952V407.109H543.616V399.727H537.288C536.409 403.691 532.776 406.367 528.186 406.367C522.756 406.367 518.85 402.891 518.85 398.008C518.85 393.203 522.756 389.688 528.186 389.727ZM528.186 393.359C525.139 393.359 522.991 395.156 522.991 398.008C522.991 400.82 525.139 402.695 528.186 402.695C531.155 402.695 533.264 400.82 533.303 398.008C533.264 395.156 531.155 393.359 528.186 393.359ZM528.967 408.75V412.5H543.616V408.75H547.952V423.047H524.67V408.75H528.967ZM528.967 419.531H543.616V415.859H528.967V419.531ZM582.017 415.625V419.18H549.752V415.625H557.212V406.68C554.4 405.078 552.701 402.559 552.72 399.414C552.681 393.789 558.228 390.078 565.806 390.078C573.423 390.078 578.97 393.789 578.97 399.414C578.97 402.5 577.33 404.98 574.595 406.602V415.625H582.017ZM565.806 393.516C560.533 393.516 556.939 395.742 556.978 399.414C556.939 403.047 560.533 405.312 565.806 405.312C571.08 405.312 574.712 403.047 574.712 399.414C574.712 395.742 571.08 393.516 565.806 393.516ZM561.509 415.625H570.181V408.242C568.834 408.555 567.369 408.711 565.806 408.711C564.283 408.711 562.837 408.555 561.509 408.281V415.625ZM610.692 388.203V414.102H606.356V402.227H599.559V398.633H606.356V388.203H610.692ZM599.794 390.859C599.794 400.156 593.622 407.148 583.427 410.391L581.591 406.914C589.208 404.492 594.227 400 595.067 394.414H583.427V390.859H599.794ZM611.591 419.258V422.773H587.684V411.484H592.098V419.258H611.591ZM637.066 390.312C637.027 399.414 631.05 405.781 620.777 408.672L619.019 405.273C626.929 403.105 631.616 398.984 632.417 393.828H620.933V390.312H637.066ZM648.355 388.203V408.086H644.019V400.391H637.222V396.836H644.019V388.203H648.355ZM648.355 409.492V423.008H625.112V409.492H648.355ZM629.37 412.93V419.57H644.058V412.93H629.37ZM662.772 396.641C662.733 402.93 665.897 409.336 671.366 411.953L668.709 415.43C664.881 413.496 662.127 409.766 660.623 405.273C659.08 410.078 656.19 414.062 652.147 416.094L649.491 412.617C655.155 409.922 658.397 403.164 658.436 396.641V391.016H662.772V396.641ZM677.811 388.164V401.992H683.241V405.703H677.811V423.477H673.475V388.164H677.811ZM700.864 396.641C700.864 403.203 703.989 409.648 709.614 412.109L706.997 415.586C702.993 413.633 700.18 409.883 698.677 405.273C697.134 410.137 694.263 414.18 690.2 416.25L687.466 412.734C693.208 410.039 696.411 403.242 696.45 396.641V391.016H700.864V396.641ZM717.427 388.164V423.516H713.13V403.086H705.708V399.57H713.13V388.164H717.427ZM748.562 388.164V423.516H744.188V388.164H748.562ZM725.398 391.055V399.883H733.953V391.055H738.25V415.195H721.062V391.055H725.398ZM725.398 411.641H733.953V403.281H725.398V411.641ZM768.8 393.008C768.8 398.477 774.152 403.945 781.534 405.234L779.581 408.867C773.663 407.617 768.82 404.043 766.534 399.297C764.191 404.004 759.347 407.598 753.448 408.867L751.534 405.234C758.839 403.906 764.152 398.438 764.191 393.008V390.391H768.8V393.008ZM782.823 415.391V418.984H750.558V415.391H782.823Z" fill="white" fill-opacity="0.85"/>
<path d="M181.289 194.524C193.028 196.192 206.671 197.876 215.582 198.909C217.538 199.136 220.323 198.6 221.485 197.912C223.621 196.646 237.682 188.201 252.468 178.918M181.289 194.524L185.22 217.797C185.378 218.731 185.448 220.501 187.404 221.269C189.115 221.94 227.652 241.991 255.855 208.427C257.439 206.542 256.567 203.186 256.357 201.942C256.143 200.673 253.878 187.893 252.468 178.918M181.289 194.524C173.812 193.461 167.107 192.405 162.889 191.527M252.468 178.918C258.591 175.075 266.708 169.615 271.191 166.796C272.587 165.6 272.53 163.37 270.508 162.751C267.911 161.957 232.899 155.13 214.329 151.76C214.329 151.76 212.831 151.373 211.428 151.61C210.325 151.796 208.737 152.705 208.737 152.705C204.908 154.631 173.445 175.199 157.792 185.95C156.344 186.835 156.035 189.188 158.528 190.306C159.565 190.77 160.649 191.061 162.889 191.527M162.889 191.527L171.133 240.337M171.133 240.337C169.932 240.796 167.873 241.848 167.567 243.819C167.325 245.378 169.292 250.248 166.041 255.597C164.721 257.77 172.984 259.381 177.856 257.442C182.048 255.774 184.665 252.345 184.835 251.463C185.093 251.099 185.078 249.75 184.157 249.337C183.12 248.873 178.866 246.391 177.303 242.815C176.053 239.954 172.634 239.764 171.133 240.337Z" stroke="white" stroke-opacity="0.93" stroke-width="8" stroke-linejoin="round"/>
<path d="M297 296.6V308.6H221.3C219.833 308.6 218.6 308.066 217.6 307L212 301.1C211 300.033 210.5 298.8 210.5 297.4V281.8H273.5V278.6H210.5V266.6H295.5V293.3H232.5V296.6H297ZM209.6 246.1L230.4 229.2H210.5V215.7H295.5V229.2H275.5L296.4 246.1H270.3L253 231.1L235.7 246.1H209.6ZM264 249.5H299V263H207V249.5H242V240.7H264V249.5ZM620.5 217.2V263.9H546.3C544.833 263.9 543.6 263.366 542.6 262.3L537 256.4C536 255.333 535.5 254.1 535.5 252.7V228.1L531.4 217.2H557.5V224.7H598.5V217.2H620.5ZM532 287.8V269.3H624V287.8H589V308.6H567V287.8H532ZM598.5 241.2H557.5V247.4H598.5V241.2Z" fill="#FFF38B"/>
<path d="M397.5 263.7V308.6H324.5C323.033 308.6 321.8 308.066 320.8 307L315.2 301.1C314.2 300.033 313.7 298.8 313.7 297.4V263.7H335.7V270.9H375.5V263.7H397.5ZM307.5 237.3C307.5 233.7 308.167 230.6 309.5 228C310.9 225.333 312.833 223.133 315.3 221.4C317.767 219.6 320.7 218.3 324.1 217.5C327.5 216.633 331.233 216.2 335.3 216.2C339.367 216.2 343.1 216.633 346.5 217.5C349.9 218.3 352.833 219.6 355.3 221.4C357.767 223.133 359.667 225.333 361 228C362.4 230.6 363.1 233.7 363.1 237.3V239.1C363.1 242.7 362.4 245.833 361 248.5C359.667 251.1 357.767 253.3 355.3 255.1C352.833 256.833 349.9 258.133 346.5 259C343.1 259.8 339.367 260.2 335.3 260.2C331.233 260.2 327.5 259.8 324.1 259C320.7 258.133 317.767 256.833 315.3 255.1C312.833 253.3 310.9 251.1 309.5 248.5C308.167 245.833 307.5 242.7 307.5 239.1V237.3ZM375.5 229.6V226.6L370.4 215.7H397.5V261.2H375.5V247.1H366V229.6H375.5ZM375.5 286.9H335.7V292.6H375.5V286.9ZM329 238.5C329 240.1 329.6 241.366 330.8 242.3C332.067 243.233 333.567 243.7 335.3 243.7C337.033 243.7 338.5 243.233 339.7 242.3C340.967 241.366 341.6 240.1 341.6 238.5V237.9C341.6 236.3 340.967 235.033 339.7 234.1C338.5 233.166 337.033 232.7 335.3 232.7C333.567 232.7 332.067 233.166 330.8 234.1C329.6 235.033 329 236.3 329 237.9V238.5ZM497 296.6V308.6H421.3C419.833 308.6 418.6 308.066 417.6 307L412 301.1C411 300.033 410.5 298.8 410.5 297.4V281.8H473.5V278.6H410.5V266.6H495.5V293.3H432.5V296.6H497ZM499 262.5H407V249H499V262.5ZM409.5 230.1C409.5 228.1 409.867 226.2 410.6 224.4C411.4 222.533 412.5 220.933 413.9 219.6C415.367 218.2 417.067 217.1 419 216.3C421 215.5 423.2 215.1 425.6 215.1H480.4C482.8 215.1 484.967 215.5 486.9 216.3C488.9 217.1 490.6 218.2 492 219.6C493.467 220.933 494.567 222.533 495.3 224.4C496.1 226.2 496.5 228.1 496.5 230.1C496.5 232.1 496.1 234.033 495.3 235.9C494.567 237.7 493.467 239.3 492 240.7C490.6 242.033 488.9 243.1 486.9 243.9C484.967 244.7 482.8 245.1 480.4 245.1H425.6C423.2 245.1 421 244.7 419 243.9C417.067 243.1 415.367 242.033 413.9 240.7C412.5 239.3 411.4 237.7 410.6 235.9C409.867 234.033 409.5 232.1 409.5 230.1ZM431.5 230.1C431.5 230.833 431.733 231.433 432.2 231.9C432.733 232.366 433.433 232.6 434.3 232.6H471.7C472.567 232.6 473.233 232.366 473.7 231.9C474.233 231.433 474.5 230.833 474.5 230.1C474.5 229.366 474.233 228.766 473.7 228.3C473.233 227.833 472.567 227.6 471.7 227.6H434.3C433.433 227.6 432.733 227.833 432.2 228.3C431.733 228.766 431.5 229.366 431.5 230.1ZM690.1 251.2H664L656.5 244.2V254.8H692.6V270.3H645.3C643.833 270.3 642.6 269.766 641.6 268.7L636 262.8C635 261.733 634.5 260.5 634.5 259.1V228.1L629.4 217.2H687.7L691.1 232.7H656.5V236.2H686.9L690.1 251.2ZM718.6 308.6H696.6V292.8H637.7V275.3H718.6V308.6ZM718.6 234.9H729V252.4H718.6V272.3H696.6V226.6L691.5 215.7H718.6V234.9ZM765.9 225.7H779.6V241.7H732.7V225.7H746.9V225.6L741.8 214.7H765.9V225.7ZM824 215.7V308.6H805.5V269.8H801.1V308.6H782.6V226.1L777.5 215.7H801.1V251.8H805.5V215.7H824ZM756.4 244.3C759.667 244.3 762.667 244.766 765.4 245.7C768.133 246.566 770.467 247.866 772.4 249.6C774.333 251.266 775.833 253.333 776.9 255.8C778.033 258.2 778.6 260.966 778.6 264.1V287.3C778.6 290.433 778.033 293.2 776.9 295.6C775.833 298.066 774.333 300.133 772.4 301.8C770.467 303.533 768.133 304.833 765.4 305.7C762.667 306.633 759.667 307.1 756.4 307.1C753.133 307.1 750.133 306.633 747.4 305.7C744.667 304.833 742.333 303.533 740.4 301.8C738.467 300.133 736.933 298.066 735.8 295.6C734.733 293.2 734.2 290.433 734.2 287.3V264.1C734.2 260.966 734.733 258.2 735.8 255.8C736.933 253.333 738.467 251.266 740.4 249.6C742.333 247.866 744.667 246.566 747.4 245.7C750.133 244.766 753.133 244.3 756.4 244.3ZM761.1 265.3C761.1 263.833 760.667 262.633 759.8 261.7C759 260.766 757.867 260.3 756.4 260.3C754.933 260.3 753.767 260.766 752.9 261.7C752.1 262.633 751.7 263.833 751.7 265.3V286.1C751.7 287.566 752.1 288.766 752.9 289.7C753.767 290.633 754.933 291.1 756.4 291.1C757.867 291.1 759 290.633 759.8 289.7C760.667 288.766 761.1 287.566 761.1 286.1V265.3Z" fill="white"/>
</svg>
